<svg width="51" height="66" viewBox="0 0 51 66" fill="none" xmlns="http://www.w3.org/2000/svg">
<path fill-rule="evenodd" clip-rule="evenodd" d="M12.7191 0.450063C13.1214 0.132664 13.476 0.0110001 13.8054 0.000717368C14.2263 -0.0123185 14.6047 0.154516 14.983 0.321332C15.1698 0.403712 15.3566 0.486087 15.5486 0.546793C16.6047 0.201739 17.0537 0.466068 17.502 0.730025C17.6552 0.820247 17.8083 0.910425 17.9856 0.97621C19.3732 0.682917 19.8932 1.22672 20.522 1.88421L20.5221 1.88434C20.5933 1.95874 20.6658 2.03459 20.7411 2.11086L21.6027 2.09375C23.9329 3.46699 25.088 6.26352 25.4986 7.70147C25.909 6.2638 27.0667 3.46717 29.3972 2.09375L30.2589 2.11086C30.3343 2.03458 30.4068 1.9587 30.478 1.88428C31.1067 1.22676 31.6267 0.682906 33.0144 0.97621C33.1917 0.910429 33.3448 0.820259 33.498 0.730044C33.9463 0.46608 34.3952 0.201731 35.4514 0.546793C35.6432 0.486115 35.8298 0.403807 36.0164 0.321507C36.6905 0.0241555 37.3644 -0.273106 38.2808 0.450154C39.2661 0.0700574 40.2216 -0.0618888 41.0762 0.711771C42.3951 0.540605 42.8243 0.893857 43.1493 1.30608C43.1778 1.30548 43.2219 1.30211 43.2788 1.29774C43.7995 1.25785 45.4017 1.13507 46.1777 2.29285C48.3418 2.03678 49.0257 3.56572 48.2508 4.99147L48.2655 5.01432C48.7027 5.69081 49.1392 6.36613 48.1172 7.65597C48.4828 8.38249 48.2561 9.17062 47.3948 10.1243C47.6221 11.1455 47.1753 11.8661 46.3739 12.4277C46.5124 13.7193 45.3003 14.5113 44.7783 14.8524C44.7355 14.8803 44.6973 14.9053 44.6649 14.9272C44.5008 15.7415 44.1587 16.5099 42.5236 16.9349C42.2656 18.0964 41.3542 18.3382 40.4422 18.5801L40.3198 18.6127C43.4648 20.4407 46.1618 22.8461 46.1436 28.7475L46.6042 29.5693C50.2107 31.7626 53.4551 38.8116 48.3816 44.5412C48.121 45.9512 47.7218 47.0489 47.3225 48.1467L47.3223 48.1471C47.2138 48.4455 47.1053 48.7438 46.9995 49.0484C46.2594 54.7932 41.4289 57.4832 40.1549 57.8013C38.2879 59.2234 36.2995 60.5727 33.6087 61.5179C31.0722 64.1341 28.3241 65.1311 25.5612 65.1294C25.5341 65.1297 25.5067 65.1296 25.4795 65.1295C25.4659 65.1294 25.4524 65.1294 25.4389 65.1294C22.6758 65.1311 19.9278 64.1341 17.3913 61.5179C14.7006 60.5727 12.7121 59.2234 10.8452 57.8013C9.57112 57.4832 4.74061 54.7931 4.00044 49.0484C3.89466 48.7437 3.7861 48.4452 3.67755 48.1468C3.67754 48.1468 3.67753 48.1467 3.67753 48.1467L3.67751 48.1467C3.27821 47.0489 2.87893 45.9512 2.61837 44.5412C-2.4551 38.8115 0.789411 31.7626 4.39573 29.5691L4.85645 28.7474C4.83816 22.846 7.53514 20.4407 10.6803 18.6126L10.5583 18.5802C9.64611 18.3383 8.73453 18.0965 8.47633 16.9348C6.84128 16.5098 6.49923 15.7415 6.33507 14.9272C6.3239 14.9196 6.31205 14.9117 6.29957 14.9034C6.27577 14.8877 6.24965 14.8706 6.22152 14.8522L6.22121 14.852L6.22118 14.852C5.69894 14.5106 4.48758 13.7187 4.62604 12.4276C3.82463 11.866 3.37783 11.1454 3.60514 10.1242C2.74385 9.17044 2.51727 8.3824 2.8829 7.65588C1.86077 6.36604 2.29723 5.69072 2.73446 5.01423L2.74922 4.99138C1.97438 3.56563 2.65822 2.03669 4.82233 2.29276C5.59838 1.13499 7.20055 1.25775 7.72127 1.29765C7.77827 1.30202 7.82232 1.30539 7.8509 1.30598C8.17585 0.893675 8.605 0.540514 9.92391 0.71168C10.7784 -0.0619798 11.734 0.0699664 12.7191 0.450063ZM29.649 27.328C28.9193 27.8061 28.3086 28.4486 27.8516 29.2189C27.3946 29.9892 27.1003 30.8721 26.9855 31.8174C26.8708 32.7626 26.9379 33.7516 27.1829 34.7278C27.4279 35.7041 27.846 36.6485 28.4134 37.5072C28.9809 38.3659 29.6865 39.122 30.49 39.7323C31.2934 40.3427 32.1791 40.7954 33.0963 41.0645C34.0135 41.3336 34.9443 41.4139 35.8356 41.3009C36.7269 41.1878 37.5612 40.8835 38.2909 40.4054C39.0206 39.9274 39.6314 39.2849 40.0884 38.5146C40.5454 37.7443 40.8396 36.8613 40.9544 35.9161C41.0691 34.9709 41.0021 33.9819 40.7571 33.0056C40.5121 32.0294 40.0939 31.085 39.5265 30.2263C38.9591 29.3676 38.2535 28.6115 37.45 28.0011C36.6465 27.3908 35.7609 26.9381 34.8437 26.669C33.9265 26.3998 32.9956 26.3195 32.1043 26.4326C31.213 26.5457 30.3787 26.8499 29.649 27.328ZM23.1631 29.5831C22.7061 28.8129 22.0953 28.1703 21.3656 27.6923C20.636 27.2142 19.8016 26.9099 18.9103 26.7969C18.019 26.6838 17.0882 26.7641 16.171 27.0332C15.2538 27.3024 14.3682 27.755 13.5647 28.3654C12.7612 28.9758 12.0556 29.7319 11.4882 30.5905C10.9208 31.4492 10.5026 32.3936 10.2576 33.3699C10.0126 34.3462 9.94556 35.3351 10.0603 36.2804C10.175 37.2256 10.4693 38.1086 10.9263 38.8788C11.3833 39.6491 11.9941 40.2916 12.7238 40.7697C13.4535 41.2478 14.2878 41.552 15.1791 41.6651C16.0704 41.7782 17.0012 41.6979 17.9184 41.4287C18.8356 41.1596 19.7212 40.707 20.5247 40.0966C21.3282 39.4862 22.0338 38.7301 22.6012 37.8714C23.1687 37.0128 23.5868 36.0683 23.8318 35.0921C24.0768 34.1158 24.1439 33.1268 24.0291 32.1816C23.9144 31.2364 23.6201 30.3534 23.1631 29.5831ZM30.8882 52.0309C32.2771 50.7501 33.0574 49.013 33.0574 47.2017C33.0574 45.3904 32.2771 43.6533 30.8882 42.3725C29.4992 41.0917 27.6154 40.3722 25.6512 40.3722C23.6869 40.3722 21.8031 41.0917 20.4141 42.3725C19.0252 43.6533 18.2449 45.3904 18.2449 47.2017C18.2449 49.013 19.0252 50.7501 20.4141 52.0309C21.8031 53.3117 23.6869 54.0312 25.6512 54.0312C27.6154 54.0312 29.4992 53.3117 30.8882 52.0309ZM6.02859 30.9789C9.34218 30.091 7.14713 44.6864 4.45134 43.4889C1.486 41.1035 0.530894 34.1183 6.02859 30.9789ZM44.3174 30.7969C41.0038 29.909 43.199 44.5044 45.8947 43.3069C48.86 40.9216 49.8152 33.9363 44.3174 30.7969ZM33.0605 19.9286C38.7782 18.9632 43.5357 22.3604 43.3442 28.5605C43.1561 30.9374 30.9541 20.2825 33.0605 19.9286ZM17.2622 19.7466C11.5444 18.7812 6.78697 22.1784 6.97843 28.3785C7.16652 30.7554 19.3686 20.1005 17.2622 19.7466ZM25.4757 18.3001C22.063 18.2112 18.7877 20.8329 18.7799 22.3534C18.7703 24.2011 21.478 26.0928 25.4989 26.1408C29.6049 26.1702 32.225 24.6266 32.2382 22.7198C32.2532 20.5595 28.5039 18.2667 25.4757 18.3001ZM25.684 56.1878C28.6594 56.058 32.6517 57.1462 32.6595 58.5898C32.7089 59.9916 29.0387 63.1588 25.4866 63.0975C21.8078 63.2562 18.2004 60.0842 18.2477 58.9846C18.1927 57.3725 22.7272 56.1139 25.684 56.1878ZM14.6942 47.6329C16.8125 50.1849 17.7781 54.6687 16.0103 55.9904C14.3378 56.9993 10.2764 56.5839 7.38955 52.4368C5.44266 48.9569 5.69354 45.4157 7.06051 44.3754C9.10476 43.1302 12.2632 44.8122 14.6942 47.6329ZM36.2497 46.8237C33.9579 49.5083 32.6817 54.4047 34.3536 55.982C35.9523 57.2071 40.2439 57.0358 43.4139 52.6373C45.7158 49.6831 44.9445 44.7495 43.6296 43.4397C41.6764 41.929 38.8725 43.8624 36.2497 46.8237ZM9.16628 6.04286C15.3494 9.2305 18.9437 11.8093 20.9129 14.0055C19.9044 18.0474 14.6435 18.2319 12.7198 18.1185C13.1137 17.9351 13.4423 17.7156 13.5588 17.3781C13.3559 17.2339 12.9358 17.2046 12.4281 17.1691C11.7284 17.1203 10.8623 17.0598 10.1698 16.6707C10.6288 16.5756 10.8435 16.483 11.0582 16.1442C10.8911 16.0909 10.7222 16.0388 10.5532 15.9866C9.58037 15.6861 8.60754 15.3857 7.99815 14.8775C8.05651 14.8782 8.11429 14.8807 8.17207 14.8832C8.49641 14.8971 8.82071 14.9109 9.24845 14.6142C9.026 14.4943 8.80026 14.3799 8.57451 14.2655L8.5745 14.2654C7.77427 13.8599 6.97397 13.4542 6.32015 12.8045C6.36836 12.8033 6.41691 12.8023 6.46546 12.8013C6.94348 12.7915 7.42168 12.7816 7.57046 12.6071C6.64502 12.0338 5.86417 11.3962 5.21781 10.6987C5.94943 10.7869 6.25837 10.7109 6.43527 10.5835C6.23501 10.3784 6.01952 10.1825 5.80404 9.98651C5.26674 9.49787 4.72944 9.00922 4.42814 8.37895C4.97139 8.56622 5.46833 8.63784 5.82658 8.36257C5.73164 8.14841 5.51221 7.96933 5.24552 7.75168C4.84431 7.42425 4.33613 7.00952 3.98389 6.25671L4.09745 6.26782C4.63377 6.32051 5.17031 6.37323 5.2836 6.25671C5.02945 5.22262 4.60213 4.62151 4.17478 4.02038L4.11556 3.937C4.41603 3.93253 4.7545 3.93055 5.09296 3.92856H5.09299C6.13316 3.92244 7.1732 3.91633 7.10983 3.83827L6.353 3.06507C7.54853 2.74321 8.77172 3.11675 9.65985 3.39411C10.0586 3.07944 9.65275 2.6816 9.16628 2.27539C10.1823 2.41098 11.1003 2.64457 11.9301 2.96633C12.2657 2.66335 11.9285 2.36043 11.5914 2.05751C11.483 1.96012 11.3746 1.86274 11.2886 1.76535C12.8582 2.06318 13.5231 2.4815 14.1842 2.90054C14.6054 2.49673 14.3074 2.14611 14.0094 1.79552C13.9683 1.74714 13.9272 1.69876 13.888 1.65024C15.0088 2.06541 15.615 2.59494 16.2212 3.1245L16.3228 3.21312C16.3526 3.17286 16.3847 3.13408 16.4167 3.0953C16.6184 2.85119 16.8201 2.60712 16.4709 1.99566C17.3112 2.48004 17.9441 3.05078 18.4122 3.69022C18.8147 3.43394 18.7796 3.10475 18.7446 2.77555C18.7343 2.67951 18.7241 2.58347 18.7247 2.48923C19.3533 3.00058 19.8166 3.5355 20.2798 4.0704C20.4602 4.27865 20.6405 4.48689 20.8306 4.69374C20.9673 4.59428 21.0869 4.25686 21.1926 3.72316C23.276 5.7443 26.2197 10.8353 21.9493 12.8538C18.3168 9.85575 13.9765 7.67727 9.16628 6.04286ZM41.9739 6.04286C35.7908 9.2305 32.1965 11.8093 30.2273 14.0055C31.2357 18.0474 36.4966 18.2319 38.4202 18.1185C38.0264 17.9351 37.6977 17.7156 37.5812 17.3781C37.7841 17.2339 38.2043 17.2046 38.7119 17.1691C39.4117 17.1203 40.2778 17.0598 40.9702 16.6707C40.5112 16.5756 40.2966 16.483 40.0819 16.1442C40.2488 16.091 40.4175 16.0389 40.5863 15.9868L40.5872 15.9865C41.5599 15.6861 42.5326 15.3856 43.1419 14.8775C43.0835 14.8782 43.0258 14.8807 42.968 14.8832C42.6437 14.8971 42.3195 14.9109 41.8916 14.6142C42.1139 14.4944 42.3395 14.3801 42.5651 14.2657L42.5652 14.2657C43.3656 13.86 44.166 13.4543 44.82 12.8045C44.7718 12.8033 44.7232 12.8023 44.6747 12.8013C44.1966 12.7915 43.7184 12.7816 43.5697 12.6071C44.4951 12.0338 45.276 11.3962 45.9223 10.6987C45.1907 10.7869 44.8817 10.7109 44.7048 10.5835C44.905 10.3785 45.1204 10.1826 45.3359 9.98665C45.8732 9.49797 46.4106 9.00928 46.712 8.37895C46.1687 8.56622 45.6717 8.63784 45.3135 8.36257C45.4085 8.1484 45.6279 7.96931 45.8946 7.75164C46.2958 7.42421 46.804 7.00948 47.1562 6.25671L47.0427 6.26782C46.5064 6.32051 45.9698 6.37323 45.8564 6.25671C46.1107 5.22264 46.538 4.62153 46.9653 4.0204L47.0246 3.937C46.7241 3.93253 46.3856 3.93055 46.0472 3.92856H46.0471C45.007 3.92244 43.9669 3.91633 44.0303 3.83827L44.7871 3.06507C43.5916 2.74321 42.3683 3.11675 41.4803 3.39411C41.0815 3.07944 41.4874 2.6816 41.9739 2.27539C40.9579 2.41098 40.0398 2.64457 39.2099 2.96633C38.8744 2.66333 39.2116 2.36038 39.5487 2.05744L39.5488 2.05742C39.6571 1.96006 39.7655 1.86271 39.8515 1.76535C38.2819 2.06318 37.6169 2.4815 36.956 2.90054C36.5346 2.49669 36.8327 2.14605 37.1308 1.79543C37.1719 1.74708 37.213 1.69873 37.2522 1.65024C36.1315 2.06531 35.5254 2.5947 34.9193 3.12412L34.8173 3.21312C34.7874 3.1728 34.7553 3.13397 34.7232 3.09513C34.5217 2.85108 34.32 2.60698 34.6692 1.99566C33.8289 2.48004 33.196 3.05078 32.7279 3.69022C32.3255 3.43397 32.3605 3.10483 32.3955 2.77568C32.4057 2.6796 32.416 2.58351 32.4153 2.48923C31.7866 3.00069 31.3233 3.53573 30.86 4.07076L30.8599 4.07083C30.6797 4.27893 30.4995 4.48703 30.3095 4.69374C30.1729 4.59428 30.0532 4.25686 29.9475 3.72316C27.8642 5.7443 24.9203 10.8353 29.1908 12.8538C32.8232 9.85575 37.1636 7.67727 41.9739 6.04286Z" fill="white"/>
</svg>
